<?xml version="1.0" encoding="UTF-8"?>
<svg version="1.1" xmlns="http://www.w3.org/2000/svg" width="200" height="200">
<path d="M0 0 C66 0 132 0 200 0 C200 66 200 132 200 200 C134 200 68 200 0 200 C0 134 0 68 0 0 Z " fill="#5D2770" transform="translate(0,0)"/>
<path d="M0 0 C7.391066 3.06798966 10.49725214 10.48175566 13.48828125 17.484375 C15.90972922 23.84152855 17.6813481 29.18651905 17 36 C17.99193359 35.76410156 17.99193359 35.76410156 19.00390625 35.5234375 C22.6530697 34.88590438 26.24356276 34.70045647 29.9375 34.625 C30.97293945 34.56892578 30.97293945 34.56892578 32.02929688 34.51171875 C35.92403695 34.44526821 38.39707898 34.92346793 41.3828125 37.33984375 C44.16032615 40.16295837 45.70249499 42.26013261 47 46 C46.76868654 49.93232882 46.2012803 51.69807955 44 55 C42.0546875 55.29296875 42.0546875 55.29296875 39.875 55.1875 C38.59625 55.125625 37.3175 55.06375 36 55 C35.649375 53.865625 35.29875 52.73125 34.9375 51.5625 C34.18200976 49.6156338 34.18200976 49.6156338 33 48 C28.62486847 46.70366473 25.37427015 47.0379612 21 48 C21.144375 48.92296875 21.28875 49.8459375 21.4375 50.796875 C22.57685848 58.8040332 23.21444248 66.65770081 23.25 74.75 C23.25902344 75.6069043 23.26804687 76.46380859 23.27734375 77.34667969 C23.27347656 78.15524414 23.26960938 78.96380859 23.265625 79.796875 C23.26336914 80.51198242 23.26111328 81.22708984 23.25878906 81.96386719 C22.96023659 84.31285549 22.15971175 85.9512143 21 88 C15.04296875 88.390625 15.04296875 88.390625 13 88 C9.48592615 84.55904642 9.58277689 81.37195523 9.48828125 76.609375 C9.47033005 75.90476135 9.45237885 75.20014771 9.43388367 74.47418213 C9.37988142 72.23284821 9.34591912 69.99172595 9.3125 67.75 C9.27931782 66.22653311 9.24482731 64.70309411 9.20898438 63.1796875 C9.12416262 59.4533284 9.05730276 55.72689537 9 52 C8.43716309 52.12117188 7.87432617 52.24234375 7.29443359 52.3671875 C-3.9312213 54.74637664 -14.4771844 56.69717876 -26 56 C-26.33 57.134375 -26.66 58.26875 -27 59.4375 C-30.89189292 71.03974681 -36.34947692 82.42371596 -44 92 C-44.55300781 92.71542969 -45.10601562 93.43085938 -45.67578125 94.16796875 C-51.24436019 100.99107811 -58.88960121 107.37433417 -67.9375 108.30078125 C-68.948125 108.30464844 -69.95875 108.30851562 -71 108.3125 C-72.010625 108.32925781 -73.02125 108.34601563 -74.0625 108.36328125 C-77.41989072 107.94807203 -79.28875899 106.98985724 -82 105 C-83.56935594 101.86128812 -83.35201103 99.46144178 -83 96 C-80.68674897 92.89363432 -79.2864759 91.25101969 -75.4375 90.5 C-73 91 -73 91 -71 92.625 C-70.34 93.07875 -69.68 93.5325 -69 94 C-65.37672098 93.09418025 -62.93436185 91.22606761 -60 89 C-59.34 89 -58.68 89 -58 89 C-57.73832031 88.42765625 -57.47664063 87.8553125 -57.20703125 87.265625 C-55.9151137 84.84066649 -54.41735476 82.88259256 -52.6875 80.75 C-46.37197514 72.71205927 -42.14636046 64.34712185 -38 55 C-39.14855469 55.04640625 -40.29710937 55.0928125 -41.48046875 55.140625 C-46.06122119 55.13658821 -49.97752903 54.1499623 -54.3125 52.75 C-55.01439453 52.54503906 -55.71628906 52.34007812 -56.43945312 52.12890625 C-60.46893828 50.86128938 -62.99346927 49.81091097 -65 46 C-65.4375 43.4375 -65.4375 43.4375 -65 41 C-63.5 39.125 -63.5 39.125 -61 38 C-56.51554872 38.1520153 -52.88560447 38.98025609 -48.6875 40.5 C-45.16540066 41.76754976 -41.93647716 42.30278048 -38.20703125 42.59375 C-36.73907104 42.71266602 -36.73907104 42.71266602 -35.24145508 42.83398438 C-34.5017749 42.88876953 -33.76209473 42.94355469 -33 43 C-32.7369104 42.15574463 -32.7369104 42.15574463 -32.46850586 41.29443359 C-18.32806547 -3.65998235 -18.32806547 -3.65998235 0 0 Z " fill="#FAF7FA" transform="translate(110,52)"/>
<path d="M0 0 C3.30714992 0.98099728 4.52454546 2.57600979 6.10546875 5.484375 C6.81199258 6.90007378 7.50561776 8.32226908 8.1875 9.75 C8.54263672 10.45382813 8.89777344 11.15765625 9.26367188 11.8828125 C13.29135445 20.10631619 14.61244641 29.58906849 12.3515625 38.578125 C10.59226618 43.23950842 8.20779708 47.37569748 5.625 51.625 C0.4173696 60.29693389 -2.94331634 69.79656299 -5.5 79.5625 C-7.53249227 86.59350523 -11.7331413 90.58304859 -18.06396484 94.08056641 C-21.24045701 95.58909976 -24.53893096 96.39271404 -27.9375 97.25 C-36.24045954 99.50978776 -43.56481713 102.94973304 -51.125 107.00537109 C-59.59159304 111.49663412 -67.13506406 115.39875957 -77 114 C-80.54626601 112.70771662 -83.71507669 110.84556175 -87 109 C-89.69477627 107.59775995 -92.40935616 106.23627534 -95.125 104.875 C-95.78193848 104.53855469 -96.43887695 104.20210938 -97.11572266 103.85546875 C-101.64727449 101.56422196 -106.21944173 99.71418682 -111 98 C-111 97.34 -111 96.68 -111 96 C-106.84690674 93.92345337 -104.48561331 93.94994646 -100 95 C-97.65154694 96.00301325 -95.33898213 97.09289306 -93.0625 98.25 C-92.12966187 98.71708374 -92.12966187 98.71708374 -91.17797852 99.19360352 C-87.95887055 100.84144496 -85.15246338 102.55679091 -82.4375 104.9375 C-77.73585621 108.55323114 -71.58313242 107.61491321 -66 107 C-61.15572603 106.05830936 -57.10783206 103.5236968 -52.81079102 101.18041992 C-52.17197998 100.83213135 -51.53316895 100.48384277 -50.875 100.125 C-50.23038818 99.77219971 -49.58577637 99.41939941 -48.92163086 99.0559082 C-40.83881149 94.71285599 -32.34900374 91.89412508 -23.5 89.5 C-18.93155672 88.16252812 -16.29215472 86.45676246 -13 83 C-11.37517551 79.50129032 -10.46920795 76.00424241 -9.625 72.25 C-7.7747067 64.71074522 -4.77045001 58.35090078 -1.0625 51.5625 C-0.55589844 50.63179687 -0.04929687 49.70109375 0.47265625 48.7421875 C1.4443483 46.99761508 2.44905178 45.27073053 3.49609375 43.5703125 C7.54543857 36.57286111 8.60565286 29.96403816 7 22 C5.33283557 18.07521707 3.27981785 14.39009149 1.02685547 10.77319336 C-2.13918577 5.57395423 -2.13918577 5.57395423 -1.2734375 2.00390625 C-0.85320312 1.34261719 -0.43296875 0.68132812 0 0 Z " fill="#F5EEF8" transform="translate(172,72)"/>
<path d="M0 0 C0.68255859 -0.020625 1.36511719 -0.04125 2.06835938 -0.0625 C10.60759938 -0.12700795 17.0027368 3.3994855 24.0625 7.875 C29.37608556 11.26575745 29.37608556 11.26575745 35.3125 13.25 C34.9825 14.9 34.6525 16.55 34.3125 18.25 C28.79681937 17.79035995 25.40821494 16.42021888 20.8125 13.375 C11.56613038 7.29304328 4.39510207 4.95349762 -6.6875 6.25 C-10.32662898 7.44642597 -13.40374689 9.2976253 -16.6875 11.25 C-19.16610908 12.60515413 -21.67118117 13.9039063 -24.1875 15.1875 C-24.85885986 15.53216309 -25.53021973 15.87682617 -26.22192383 16.23193359 C-32.10782474 19.15870075 -38.155389 21.23726008 -44.484375 22.99584961 C-50.60731341 24.81446827 -55.27333308 27.66362796 -58.89575195 33.04492188 C-61.73824134 38.35252518 -63.26706649 44.11956089 -64.9375 49.875 C-67.44399816 58.17699404 -70.48794169 65.32715304 -75.0859375 72.66796875 C-78.05888818 77.46094533 -78.28123265 81.76012419 -77.6875 87.25 C-76.7044489 90.74390137 -75.20129452 93.95624929 -73.6875 97.25 C-72.63560781 99.57301641 -71.58827902 101.89799039 -70.54492188 104.22485352 C-69.81369583 105.85092871 -69.07553758 107.47390645 -68.33007812 109.09350586 C-67.81864258 110.22091187 -67.81864258 110.22091187 -67.296875 111.37109375 C-66.98717773 112.0458374 -66.67748047 112.72058105 -66.35839844 113.41577148 C-65.6875 115.25 -65.6875 115.25 -65.6875 118.25 C-68.1625 118.745 -68.1625 118.745 -70.6875 119.25 C-70.90889648 118.71632813 -71.13029297 118.18265625 -71.35839844 117.6328125 C-72.38181931 115.17063866 -73.40963267 112.71032074 -74.4375 110.25 C-74.78554687 109.41082031 -75.13359375 108.57164063 -75.4921875 107.70703125 C-77.17900334 103.67741562 -78.91659275 99.71058899 -80.890625 95.8125 C-84.05731335 89.53419613 -84.75470649 84.20576427 -83.6875 77.25 C-81.85074002 72.27405024 -79.17829448 67.6632011 -76.63574219 63.02148438 C-73.89959097 57.90986923 -72.06170886 52.47244017 -70.328125 46.95703125 C-63.5608935 25.51932937 -63.5608935 25.51932937 -52.703125 19.5703125 C-48.57970339 17.76498024 -44.33115768 16.5270126 -40.0144043 15.28637695 C-30.7348333 12.52852721 -22.25384434 7.91260916 -13.91015625 3.06640625 C-9.15389927 0.38560686 -5.33833827 0.03921644 0 0 Z " fill="#F5EDF6" transform="translate(99.6875,14.75)"/>
<path d="M0 0 C3.1875 0.4375 3.1875 0.4375 5.24609375 2.84765625 C7.82469577 7.01574829 8.56245076 11.5499369 9.4375 16.3125 C9.61023438 17.19164063 9.78296875 18.07078125 9.9609375 18.9765625 C10.381906 21.12817925 10.79037022 23.28137902 11.1875 25.4375 C2.07911299 28.95555424 -6.0017502 30.7539758 -15.8125 30.4375 C-15.08492739 25.97678696 -13.64177766 21.84215947 -12.0625 17.625 C-11.79735596 16.91593506 -11.53221191 16.20687012 -11.2590332 15.47631836 C-5.64127659 0.87753191 -5.64127659 0.87753191 0 0 Z " fill="#5E2B71" transform="translate(104.8125,65.5625)"/>
<path d="M0 0 C0.99 0.33 1.98 0.66 3 1 C2.2575 1.680625 2.2575 1.680625 1.5 2.375 C-0.22609337 3.87635519 -0.22609337 3.87635519 0 6 C0.66 5.01 1.32 4.02 2 3 C3.32 3 4.64 3 6 3 C6 2.34 6 1.68 6 1 C10.75 1.75 10.75 1.75 13 4 C13.88423433 11.83472742 14.0260181 19.5821615 9 26 C6.4250094 28.87129089 4.17557742 30.81297632 0.25 31.4375 C-2 31 -2 31 -4 29 C-4 26.6875 -4 26.6875 -3 24 C-1.02043058 22.30911778 0.97945196 20.64169528 3 19 C3.94436349 16.83468832 3.94436349 16.83468832 4 15 C3.236875 14.938125 2.47375 14.87625 1.6875 14.8125 C-1 14 -1 14 -2.8125 11.75 C-4.09614175 8.77735595 -4.57157796 7.18450577 -4 4 C-2 1.6875 -2 1.6875 0 0 Z " fill="#F6F2F8" transform="translate(143,39)"/>
<path d="M0 0 C1.16660156 0.59296875 2.33320312 1.1859375 3.53515625 1.796875 C4.15559814 2.10898926 4.77604004 2.42110352 5.4152832 2.74267578 C8.62500075 4.39169722 11.51095468 6.11901836 14.28515625 8.421875 C18.9012549 11.38314583 23.2083546 11.4396737 28.59765625 11.546875 C28.59765625 11.876875 28.59765625 12.206875 28.59765625 12.546875 C25.62765625 13.206875 22.65765625 13.866875 19.59765625 14.546875 C21.18038226 16.12960101 22.97799628 15.89423247 25.16015625 16.109375 C25.98644531 16.19316406 26.81273437 16.27695313 27.6640625 16.36328125 C28.62119141 16.45416016 28.62119141 16.45416016 29.59765625 16.546875 C29.59765625 16.876875 29.59765625 17.206875 29.59765625 17.546875 C21.44340958 18.32760074 16.61449134 16.48912912 9.59765625 12.546875 C6.90287998 11.14463495 4.18830009 9.78315034 1.47265625 8.421875 C0.48724854 7.91720703 0.48724854 7.91720703 -0.51806641 7.40234375 C-5.04961824 5.11109696 -9.62178548 3.26106182 -14.40234375 1.546875 C-14.40234375 0.886875 -14.40234375 0.226875 -14.40234375 -0.453125 C-9.04037279 -3.13411048 -5.41909912 -2.31447172 0 0 Z " fill="#F5F0F8" transform="translate(75.40234375,168.453125)"/>
<path d="M0 0 C5.11985328 1.45036091 9.17086345 3.75426451 13.625 6.5625 C18.99902035 9.99020855 18.99902035 9.99020855 25 12 C24.67 13.65 24.34 15.3 24 17 C18.45540829 16.55502003 14.71629132 15.03112247 10.0625 11.9375 C9.17981445 11.37192383 9.17981445 11.37192383 8.27929688 10.79492188 C6.84578537 9.87421123 5.4218428 8.93863006 4 8 C4.66 7.67 5.32 7.34 6 7 C5.34 5.35 4.68 3.7 4 2 C3.01 2.33 2.02 2.66 1 3 C0.67 2.01 0.34 1.02 0 0 Z " fill="#F7F2F9" transform="translate(110,16)"/>
<path d="M0 0 C-0.99 0.66 -1.98 1.32 -3 2 C-3 2.99 -3 3.98 -3 5 C-4.6232687 5.6708712 -6.24867578 6.33657029 -7.875 7 C-8.77992188 7.37125 -9.68484375 7.7425 -10.6171875 8.125 C-13 9 -13 9 -15 9 C-15.12375 8.360625 -15.2475 7.72125 -15.375 7.0625 C-15.684375 6.0415625 -15.684375 6.0415625 -16 5 C-16.66 4.67 -17.32 4.34 -18 4 C-15.75438718 3.13237686 -13.50473745 2.2807897 -11.25 1.4375 C-10.61578125 1.19064453 -9.9815625 0.94378906 -9.328125 0.68945312 C-5.88990821 -0.58197079 -3.47831118 -1.46686355 0 0 Z " fill="#F2E9F3" transform="translate(147,164)"/>
<path d="M0 0 C1.8125 0.0625 1.8125 0.0625 4 1 C5.81278756 4.4960903 7 7.03981755 7 11 C5.35 11.33 3.7 11.66 2 12 C-1.57142857 4.71428571 -1.57142857 4.71428571 0 0 Z " fill="#F5ECF7" transform="translate(27,122)"/>
<path d="M0 0 C6.93 0.495 6.93 0.495 14 1 C14 1.33 14 1.66 14 2 C11.03 2.66 8.06 3.32 5 4 C6.58272601 5.58272601 8.38034003 5.34735747 10.5625 5.5625 C11.38878906 5.64628906 12.21507813 5.73007813 13.06640625 5.81640625 C13.70449219 5.87699219 14.34257813 5.93757812 15 6 C15 6.33 15 6.66 15 7 C8.48208608 7.3540919 3.82478551 7.03901852 -2 4 C-1.34 2.68 -0.68 1.36 0 0 Z " fill="#DDCFE0" transform="translate(90,179)"/>
<path d="M0 0 C-0.33 1.98 -0.66 3.96 -1 6 C-4.3 5.01 -7.6 4.02 -11 3 C-11 2.34 -11 1.68 -11 1 C-6.92630576 -1.03684712 -4.41062136 -1.0257259 0 0 Z " fill="#F5EDF5" transform="translate(72,167)"/>
<path d="M0 0 C0.33 1.32 0.66 2.64 1 4 C1.99 4.33 2.98 4.66 4 5 C2.6302836 8.99500618 0.74277578 11.80009492 -2 15 C-2.33 14.01 -2.66 13.02 -3 12 C-2.34 12 -1.68 12 -1 12 C-1 11.01 -1 10.02 -1 9 C-1.99 8.67 -2.98 8.34 -4 8 C-2.68 5.36 -1.36 2.72 0 0 Z " fill="#ECE2F1" transform="translate(178,110)"/>
<path d="M0 0 C0.33 1.32 0.66 2.64 1 4 C1.66 4 2.32 4 3 4 C3 3.34 3 2.68 3 2 C3.66 2 4.32 2 5 2 C5 2.66 5 3.32 5 4 C8.3 3.67 11.6 3.34 15 3 C11.48239398 6.51760602 6.87157039 6.05502509 2.125 6.0625 C0.74993391 6.0466164 -0.62511713 6.02749766 -2 6 C-1.125 1.125 -1.125 1.125 0 0 Z " fill="#5B376A" transform="translate(91,90)"/>
<path d="M0 0 C-1.43561686 3.18706942 -3.20266329 5.62169105 -5.5 8.25 C-6.1084375 8.95640625 -6.716875 9.6628125 -7.34375 10.390625 C-9 12 -9 12 -11 12 C-9.91244877 6.92476094 -5.9431747 0 0 0 Z " fill="#582E67" transform="translate(50,40)"/>
<path d="M0 0 C1 2 1 2 1 6 C-0.98 6.66 -2.96 7.32 -5 8 C-5.12375 7.360625 -5.2475 6.72125 -5.375 6.0625 C-5.684375 5.0415625 -5.684375 5.0415625 -6 4 C-6.66 3.67 -7.32 3.34 -8 3 C-5.36 2.01 -2.72 1.02 0 0 Z " fill="#F0E5F0" transform="translate(71,26)"/>
<path d="M0 0 C4.50802601 1.25805377 7.4912812 2.90407165 11 6 C10.67 7.65 10.34 9.3 10 11 C8.02 10.01 6.04 9.02 4 8 C4.66 7.67 5.32 7.34 6 7 C5.34 5.35 4.68 3.7 4 2 C3.01 2.33 2.02 2.66 1 3 C0.67 2.01 0.34 1.02 0 0 Z " fill="#E7DAEA" transform="translate(110,16)"/>
<path d="M0 0 C0.99 0.33 1.98 0.66 3 1 C2.505 1.33 2.01 1.66 1.5 2 C-0.88179561 5.17572747 -0.19168226 8.10246066 0 12 C-0.99 12 -1.98 12 -3 12 C-4.05699482 6.71502591 -4.05699482 6.71502591 -4 4 C-2.0625 1.5 -2.0625 1.5 0 0 Z " fill="#EAD9EE" transform="translate(143,39)"/>
<path d="M0 0 C0.66 0 1.32 0 2 0 C1.43450607 3.93053185 0.28617442 6.53407537 -1.9375 9.8125 C-2.46214844 10.60269531 -2.98679687 11.39289063 -3.52734375 12.20703125 C-4.01332031 12.79871094 -4.49929687 13.39039063 -5 14 C-5.66 14 -6.32 14 -7 14 C-7 13.01 -7 12.02 -7 11 C-6.34 11 -5.68 11 -5 11 C-4.731875 10.113125 -4.46375 9.22625 -4.1875 8.3125 C-3.0749365 5.2090334 -1.89804222 2.68889315 0 0 Z " fill="#563168" transform="translate(63,120)"/>
<path d="M0 0 C0.66 0.66 1.32 1.32 2 2 C1.78476665 7.59606702 0.27082508 10.67407006 -3 15 C-4.57156655 11.8568669 -3.11705576 9.634536 -2.0625 6.375 C-1.68222656 5.18648438 -1.30195312 3.99796875 -0.91015625 2.7734375 C-0.60980469 1.85820313 -0.30945312 0.94296875 0 0 Z " fill="#694372" transform="translate(35,60)"/>
<path d="M0 0 C2.875 -0.125 2.875 -0.125 6 0 C6.66 0.66 7.32 1.32 8 2 C7.01 2 6.02 2 5 2 C5 2.66 5 3.32 5 4 C4.38125 4.061875 3.7625 4.12375 3.125 4.1875 C0.72238859 4.828919 0.72238859 4.828919 -0.25 7.5625 C-0.4975 8.366875 -0.745 9.17125 -1 10 C-1.33 10 -1.66 10 -2 10 C-2.36923077 5.44615385 -2.36923077 5.44615385 -0.5 3.1875 C-0.005 2.795625 0.49 2.40375 1 2 C0.67 1.34 0.34 0.68 0 0 Z " fill="#957B9E" transform="translate(144,38)"/>
<path d="M0 0 C0.66666667 1.33333333 1.33333333 2.66666667 2 4 C2.556875 5.03125 3.11375 6.0625 3.6875 7.125 C4.120625 8.07375 4.55375 9.0225 5 10 C4.67 10.66 4.34 11.32 4 12 C2.35 12 0.7 12 -1 12 C-0.34 10.68 0.32 9.36 1 8 C0.34 7.01 -0.32 6.02 -1 5 C-0.625 2.3125 -0.625 2.3125 0 0 Z " fill="#E9DAED" transform="translate(21,102)"/>
<path d="M0 0 C5.56890517 0.47986031 10.67067568 1.29915181 16 3 C11.84273229 4.3857559 8.25384029 3.89837421 4 3 C1.4375 1.4375 1.4375 1.4375 0 0 Z " fill="#532962" transform="translate(55,105)"/>
<path d="M0 0 C-0.33 1.65 -0.66 3.3 -1 5 C-3.31 4.67 -5.62 4.34 -8 4 C-4.5 0 -4.5 0 0 0 Z " fill="#E9D9EA" transform="translate(135,28)"/>
<path d="M0 0 C0.99 0 1.98 0 3 0 C3 0.66 3 1.32 3 2 C3.66 2 4.32 2 5 2 C4.67 3.98 4.34 5.96 4 8 C3.67 7.01 3.34 6.02 3 5 C1.68 5 0.36 5 -1 5 C-0.67 3.35 -0.34 1.7 0 0 Z " fill="#ECE0EF" transform="translate(33,50)"/>
<path d="M0 0 C1.13869156 2.7949702 1.06846818 3.82681578 -0.0625 6.6875 C-2 9 -2 9 -5.1875 9.8125 C-6.115625 9.874375 -7.04375 9.93625 -8 10 C-7.236875 9.278125 -6.47375 8.55625 -5.6875 7.8125 C-3.28866409 5.30209033 -1.64589779 3.03191698 0 0 Z " fill="#69417B" transform="translate(165,154)"/>
<path d="M0 0 C1.32 0.33 2.64 0.66 4 1 C4 1.99 4 2.98 4 4 C1.625 4.625 1.625 4.625 -1 5 C-1.66 4.34 -2.32 3.68 -3 3 C-2.01 2.67 -1.02 2.34 0 2 C0 1.34 0 0.68 0 0 Z " fill="#FBF6FA" transform="translate(50,34)"/>
<path d="M0 0 C0.99 0.33 1.98 0.66 3 1 C2.67 2.65 2.34 4.3 2 6 C1.01 6.33 0.02 6.66 -1 7 C-1.33 6.34 -1.66 5.68 -2 5 C-1.0625 2.375 -1.0625 2.375 0 0 Z " fill="#FDF6FD" transform="translate(180,109)"/>
<path d="M0 0 C0.33 0 0.66 0 1 0 C1.66 3.3 2.32 6.6 3 10 C2.34 10 1.68 10 1 10 C1 10.99 1 11.98 1 13 C0.34 13 -0.32 13 -1 13 C-0.67 8.71 -0.34 4.42 0 0 Z " fill="#764982" transform="translate(156,46)"/>
<path d="M0 0 C0.99 0.33 1.98 0.66 3 1 C2.1875 2.9375 2.1875 2.9375 1 5 C-2.28976808 6.09658936 -3.71303767 5.79953138 -7 5 C-7 4.67 -7 4.34 -7 4 C-5.02 3.67 -3.04 3.34 -1 3 C-0.67 2.01 -0.34 1.02 0 0 Z " fill="#664377" transform="translate(132,136)"/>
<path d="M0 0 C0.33 1.32 0.66 2.64 1 4 C0.01 4 -0.98 4 -2 4 C-2.33 4.99 -2.66 5.98 -3 7 C-3.66 5.68 -4.32 4.36 -5 3 C-2.25 0 -2.25 0 0 0 Z " fill="#EDE6F1" transform="translate(181,83)"/>
<path d="M0 0 C-1.98 0.99 -1.98 0.99 -4 2 C-4 2.66 -4 3.32 -4 4 C-5.65 3.67 -7.3 3.34 -9 3 C-9 2.34 -9 1.68 -9 1 C-5.57367167 -0.61798838 -3.61944899 -1.34053666 0 0 Z " fill="#D8C4DF" transform="translate(70,167)"/>
<path d="M0 0 C0.33 0 0.66 0 1 0 C1.28875 1.11375 1.5775 2.2275 1.875 3.375 C2.69241329 7.00291092 2.69241329 7.00291092 5 9 C3.0625 9.5625 3.0625 9.5625 1 10 C0 9 0 9 -0.09765625 6.93359375 C-0.08605469 6.10988281 -0.07445313 5.28617188 -0.0625 4.4375 C-0.05347656 3.61121094 -0.04445313 2.78492188 -0.03515625 1.93359375 C-0.02355469 1.29550781 -0.01195313 0.65742188 0 0 Z " fill="#67427C" transform="translate(26,150)"/>
<path d="M0 0 C1.32 1.32 2.64 2.64 4 4 C2.02 4.99 2.02 4.99 0 6 C-0.12375 5.360625 -0.2475 4.72125 -0.375 4.0625 C-0.684375 3.0415625 -0.684375 3.0415625 -1 2 C-1.66 1.67 -2.32 1.34 -3 1 C-2.01 0.67 -1.02 0.34 0 0 Z " fill="#ECDFEE" transform="translate(132,167)"/>
<path d="M0 0 C0.66 0.33 1.32 0.66 2 1 C0 4 0 4 -2.625 4.6875 C-3.800625 4.8421875 -3.800625 4.8421875 -5 5 C-5.33 4.34 -5.66 3.68 -6 3 C-4.03533587 1.93224776 -2.03144641 0.93446535 0 0 Z " fill="#583A6A" transform="translate(82,26)"/>
<path d="M0 0 C-0.33 0.99 -0.66 1.98 -1 3 C-1.66 2.67 -2.32 2.34 -3 2 C-3.33 2.99 -3.66 3.98 -4 5 C-5.32 4.34 -6.64 3.68 -8 3 C-2.25 0 -2.25 0 0 0 Z " fill="#634275" transform="translate(128,175)"/>
<path d="M0 0 C0.33 0 0.66 0 1 0 C1.125 2.375 1.125 2.375 1 5 C0.34 5.66 -0.32 6.32 -1 7 C-1.99 6.67 -2.98 6.34 -4 6 C-2.69593116 3.98079663 -1.36176581 1.98075027 0 0 Z " fill="#56396A" transform="translate(181,117)"/>
<path d="M0 0 C0.99 0 1.98 0 3 0 C3 1.98 3 3.96 3 6 C2.01 6 1.02 6 0 6 C0 4.02 0 2.04 0 0 Z " fill="#573766" transform="translate(131,100)"/>
<path d="M0 0 C1.9451 2.91765 2.45276317 4.62537285 3 8 C1.68 8.33 0.36 8.66 -1 9 C-0.67 6.03 -0.34 3.06 0 0 Z " fill="#543062" transform="translate(113,83)"/>
</svg>
